<svg
  class="menu-bar__logo"
  viewBox="0 0 223 85"
  fill="none"
  xmlns="http://www.w3.org/2000/svg"
>
  <path
    d="M79.4859 16.9091C78.8296 9.33238 73.2813 5.03693 65.5853 5.03693C57.3523 5.03693 50.8495 10.5256 50.8495 20.7273C50.8495 30.8842 57.1734 36.4176 65.5853 36.4176C74.5341 36.4176 79.0682 30.2131 79.4859 25.0227L71.0739 24.9631C70.6563 27.5731 68.8069 29.1989 65.7643 29.1989C61.7224 29.1989 59.3807 26.3352 59.3807 20.7273C59.3807 15.4176 61.6478 12.2557 65.8239 12.2557C69.0157 12.2557 70.8353 14.1349 71.0739 16.9091H79.4859Z"
    fill="currentColor"
  />
  <path
    d="M112.839 20.7273C112.839 10.5256 106.277 5.03693 97.9839 5.03693C89.6316 5.03693 83.1288 10.5256 83.1288 20.7273C83.1288 30.8693 89.6316 36.4176 97.9839 36.4176C106.277 36.4176 112.839 30.929 112.839 20.7273ZM104.308 20.7273C104.308 26.2159 102.1 29.1989 97.9839 29.1989C93.8674 29.1989 91.66 26.2159 91.66 20.7273C91.66 15.2386 93.8674 12.2557 97.9839 12.2557C102.1 12.2557 104.308 15.2386 104.308 20.7273Z"
    fill="currentColor"
  />
  <path
    d="M116.676 36H137.318V29.3182H124.968V5.45454H116.676V36Z"
    fill="currentColor"
  />
  <path
    d="M169.071 20.7273C169.071 10.5256 162.509 5.03693 154.216 5.03693C145.864 5.03693 139.361 10.5256 139.361 20.7273C139.361 30.8693 145.864 36.4176 154.216 36.4176C162.509 36.4176 169.071 30.929 169.071 20.7273ZM160.54 20.7273C160.54 26.2159 158.333 29.1989 154.216 29.1989C150.1 29.1989 147.892 26.2159 147.892 20.7273C147.892 15.2386 150.1 12.2557 154.216 12.2557C158.333 12.2557 160.54 15.2386 160.54 20.7273Z"
    fill="currentColor"
  />
  <path
    d="M172.908 36H181.201V25.9176H184.065L189.434 36H198.442L192.238 24.6051C195.489 23.0391 197.428 20.071 197.428 15.8352C197.428 9.33238 192.879 5.45454 186.093 5.45454H172.908V36ZM181.201 19.4744V12.0767H184.124C187.033 12.0767 188.778 13.2102 188.778 15.8352C188.778 18.4453 187.033 19.4744 184.124 19.4744H181.201Z"
    fill="currentColor"
  />
  <path
    d="M67.4347 62H75.3694C75.3395 56.0043 70.716 52.0369 63.3182 52.0369C56.0547 52.0369 50.9241 55.9446 50.9688 61.7614C50.9539 66.5341 54.265 69.1889 59.679 70.3523L62.7216 71.0085C66.1222 71.7543 67.2856 72.6044 67.3154 73.9915C67.2856 75.4979 65.9134 76.5568 63.2586 76.5568C60.0817 76.5568 58.2025 75.0653 58.0682 72.2614H50.1932C50.2231 79.9275 55.4134 83.3579 63.3779 83.3579C71.1187 83.3579 75.7572 80.017 75.787 73.9915C75.7572 69.3381 72.983 66.0717 66.2415 64.625L63.7359 64.0881C60.8424 63.4766 59.5448 62.6264 59.6194 61.1648C59.6343 59.8224 60.7529 58.8381 63.3182 58.8381C66.0029 58.8381 67.2707 60.0163 67.4347 62Z"
    fill="currentColor"
  />
  <path
    d="M78.1062 59.1364H87.2937V83H95.467V59.1364H104.655V52.4545H78.1062V59.1364Z"
    fill="currentColor"
  />
  <path
    d="M111.814 83L113.574 77.1534H123.656L125.416 83H134.365L124.282 52.4545H112.947L102.865 83H111.814ZM115.453 70.9489L118.495 60.8665H118.734L121.777 70.9489H115.453Z"
    fill="currentColor"
  />
  <path
    d="M164.388 63.9091C163.732 56.3324 158.184 52.0369 150.488 52.0369C142.255 52.0369 135.752 57.5256 135.752 67.7273C135.752 77.8842 142.076 83.4176 150.488 83.4176C159.436 83.4176 163.971 77.2131 164.388 72.0227L155.976 71.9631C155.559 74.5731 153.709 76.1989 150.667 76.1989C146.625 76.1989 144.283 73.3352 144.283 67.7273C144.283 62.4176 146.55 59.2557 150.726 59.2557C153.918 59.2557 155.738 61.1349 155.976 63.9091H164.388Z"
    fill="currentColor"
  />
  <path
    d="M168.15 83H176.443V75.125L179.187 71.5454L186.048 83H195.952L185.392 66.0568L195.713 52.4545H186.048L176.861 64.804H176.443V52.4545H168.15V83Z"
    fill="currentColor"
  />
  <path
    d="M214.23 62H222.164C222.134 56.0043 217.511 52.0369 210.113 52.0369C202.85 52.0369 197.719 55.9446 197.764 61.7614C197.749 66.5341 201.06 69.1889 206.474 70.3523L209.517 71.0085C212.917 71.7543 214.08 72.6044 214.11 73.9915C214.08 75.4979 212.708 76.5568 210.054 76.5568C206.877 76.5568 204.997 75.0653 204.863 72.2614H196.988C197.018 79.9275 202.208 83.3579 210.173 83.3579C217.914 83.3579 222.552 80.017 222.582 73.9915C222.552 69.3381 219.778 66.0717 213.036 64.625L210.531 64.0881C207.637 63.4766 206.34 62.6264 206.414 61.1648C206.429 59.8224 207.548 58.8381 210.113 58.8381C212.798 58.8381 214.066 60.0163 214.23 62Z"
    fill="currentColor"
  />
  <path
    d="M0 69.0345H31.3793V80.7241C31.3793 82.9333 29.5884 84.7241 27.3793 84.7241H4C1.79086 84.7241 0 82.9333 0 80.7241V69.0345Z"
    fill="#666666"
  />
  <rect y="51.7759" width="31.3793" height="15.6897" fill="#808080" />
  <rect y="34.5172" width="31.3793" height="15.6897" fill="#999999" />
  <rect y="17.2586" width="31.3793" height="15.6897" fill="#B3B3B3" />
  <path
    d="M0 4C0 1.79086 1.79086 0 4 0H27.3793C29.5885 0 31.3793 1.79086 31.3793 4V15.6897H0V4Z"
    fill="#CCCCCC"
  />
</svg>
